<?xml version="1.0" standalone="no"?>
<!DOCTYPE svg PUBLIC "-//W3C//DTD SVG 20010904//EN"
 "http://www.w3.org/TR/2001/REC-SVG-20010904/DTD/svg10.dtd">
<svg version="1.0" xmlns="http://www.w3.org/2000/svg"
 width="660.000000pt" height="660.000000pt" viewBox="0 0 660.000000 660.000000"
 preserveAspectRatio="xMidYMid meet">
<metadata>
Created by potrace 1.14, written by Peter Selinger 2001-2017
</metadata>
<g transform="translate(0.000000,660.000000) scale(0.100000,-0.100000)"
fill="#000000" stroke="none">
<path d="M3112 6515 c-252 -253 -326 -501 -225 -754 48 -121 247 -450 581
-961 116 -176 152 -242 191 -343 104 -271 100 -556 -9 -694 -30 -39 -4 -51 33
-15 36 34 108 134 135 187 22 45 58 168 67 232 14 100 4 306 -20 423 -3 14
-10 48 -15 75 -31 155 -150 504 -246 721 -7 16 -29 68 -49 114 -20 46 -42 98
-50 114 -238 518 -320 777 -294 920 15 82 -2 78 -99 -19z"/>
<path d="M4107 6413 c-249 -130 -398 -301 -432 -497 -11 -65 -11 -167 -1 -220
9 -43 48 -232 51 -246 2 -8 10 -42 19 -75 8 -33 18 -76 21 -95 3 -19 10 -46
15 -60 5 -14 18 -64 29 -112 17 -71 110 -422 150 -568 100 -360 14 -777 -189
-913 -16 -11 -21 -20 -14 -27 25 -25 194 93 269 188 73 92 159 277 179 386 2
12 11 58 20 104 35 183 41 632 11 887 -1 17 -6 68 -10 115 -4 47 -9 103 -11
125 -3 22 -6 56 -9 75 -2 19 -7 69 -10 110 -4 41 -9 86 -11 100 -12 70 -19
224 -19 390 1 187 13 267 49 325 45 72 21 74 -107 8z"/>
<path d="M2167 6373 c-52 -82 -120 -243 -133 -313 -3 -14 -9 -42 -13 -62 -13
-58 -11 -182 5 -248 21 -90 71 -184 137 -256 99 -108 425 -387 832 -714 162
-130 224 -187 290 -270 191 -240 268 -503 199 -684 -4 -10 -1 -16 9 -16 15 0
46 57 80 150 29 80 33 267 8 375 -41 177 -120 345 -262 560 -78 118 -281 382
-371 481 -18 20 -37 42 -43 48 -5 6 -44 49 -85 96 -41 47 -83 94 -93 105 -111
121 -287 326 -345 403 -87 116 -157 250 -167 321 -4 28 -11 53 -16 56 -4 3
-19 -11 -32 -32z"/>
<path d="M5044 6014 c-281 -49 -455 -145 -560 -309 -65 -103 -85 -183 -109
-435 -15 -157 -25 -288 -30 -365 -2 -38 -7 -110 -10 -160 -3 -49 -8 -135 -10
-190 -16 -361 -17 -370 -47 -495 -60 -256 -195 -470 -353 -561 -27 -16 -57
-29 -66 -29 -22 0 -48 -29 -28 -31 132 -11 337 92 464 233 112 124 229 332
309 548 57 156 174 582 203 740 2 14 9 45 14 70 6 25 13 55 15 68 3 13 16 76
30 140 14 64 28 128 30 141 3 13 19 76 35 140 63 239 117 363 195 447 24 27
41 50 39 52 -9 10 -53 8 -121 -4z"/>
<path d="M1274 5883 c-3 -16 -8 -34 -10 -41 -12 -38 -19 -141 -18 -259 0 -116
4 -141 29 -218 25 -78 74 -167 122 -220 95 -108 310 -207 1123 -520 246 -94
358 -150 465 -231 130 -97 253 -248 299 -364 10 -25 21 -76 25 -115 3 -38 11
-70 16 -70 16 0 32 105 28 185 -11 213 -106 393 -323 610 -218 219 -439 372
-1065 735 -241 140 -400 243 -486 314 -69 57 -139 140 -157 186 -17 42 -39 45
-48 8z"/>
<path d="M5434 5344 c-177 -38 -305 -128 -396 -279 -20 -33 -73 -145 -117
-250 -45 -104 -86 -199 -91 -210 -11 -25 -115 -290 -145 -370 -138 -370 -167
-435 -253 -564 -142 -212 -344 -361 -513 -379 -38 -4 -69 -11 -69 -17 1 -17
51 -26 150 -27 323 -3 637 234 981 742 109 160 159 242 359 585 215 368 300
497 398 599 47 49 123 106 140 106 14 0 36 29 29 37 -31 31 -367 50 -473 27z"/>
<path d="M579 5163 c-16 -103 52 -356 132 -489 107 -177 261 -262 524 -289 33
-3 78 -8 100 -10 22 -2 72 -7 110 -10 39 -3 88 -8 110 -10 22 -2 85 -7 140
-10 55 -3 136 -7 180 -10 97 -6 234 -13 375 -20 342 -18 599 -113 771 -287 53
-54 109 -141 109 -172 0 -20 26 -40 32 -24 7 19 -18 136 -43 198 -87 216 -316
403 -669 545 -154 62 -485 161 -670 200 -8 2 -89 20 -180 39 -91 20 -199 44
-240 53 -41 9 -120 27 -175 40 -55 13 -107 26 -115 28 -98 21 -253 76 -331
117 -30 16 -77 49 -104 73 -51 47 -54 49 -56 38z"/>
<path d="M5747 4575 c-89 -22 -183 -74 -253 -138 -91 -84 -388 -424 -597 -687
-7 -8 -59 -73 -116 -145 -131 -164 -244 -276 -352 -348 -228 -151 -424 -198
-596 -143 -34 11 -29 -16 6 -37 17 -10 65 -30 108 -44 70 -24 92 -27 213 -27
172 0 291 31 475 122 120 59 345 202 440 279 6 4 55 44 110 88 90 72 313 260
325 275 3 4 68 62 145 130 77 69 142 127 145 130 3 3 48 42 100 86 185 155
312 234 419 260 104 26 97 23 80 39 -43 42 -264 137 -374 160 -66 15 -221 14
-278 0z"/>
<path d="M1728 4255 c-2 -1 -57 -5 -123 -9 -66 -3 -147 -8 -180 -11 -56 -5
-86 -8 -205 -20 -49 -5 -108 -11 -215 -20 -38 -4 -80 -8 -93 -10 -76 -12 -231
-20 -392 -20 -194 1 -255 11 -338 55 -54 29 -56 8 -10 -84 89 -179 188 -300
306 -377 160 -105 287 -117 575 -54 172 37 550 131 822 205 314 85 305 83 495
84 149 0 188 -3 263 -22 153 -38 278 -113 340 -202 12 -17 20 -21 27 -14 17
17 -48 129 -120 208 -85 93 -278 199 -425 233 -67 15 -230 42 -290 48 -65 7
-431 15 -437 10z"/>
<path d="M2238 3895 c-2 -2 -37 -6 -78 -10 -203 -18 -450 -86 -770 -210 -120
-47 -452 -189 -585 -250 -348 -161 -612 -237 -740 -214 -81 15 -77 -3 20 -99
181 -180 340 -261 520 -267 84 -3 191 18 263 52 129 60 516 298 917 562 190
125 297 181 424 222 247 79 492 69 621 -26 26 -19 36 -22 42 -12 13 19 -103
119 -189 162 -100 50 -197 75 -313 81 -52 3 -103 6 -112 8 -9 2 -18 3 -20 1z"/>
<path d="M5888 3750 c-65 -11 -144 -38 -198 -68 -211 -116 -483 -284 -865
-534 -198 -130 -232 -149 -321 -187 -154 -65 -295 -95 -445 -95 -79 1 -196 21
-205 35 -3 5 -13 9 -22 9 -9 0 -35 14 -56 30 -47 35 -70 22 -33 -18 94 -102
266 -185 427 -207 52 -6 253 -7 290 -1 14 3 43 7 65 11 289 43 695 187 1265
448 117 53 309 131 405 162 163 55 252 67 358 51 60 -10 48 21 -43 107 -154
148 -281 225 -417 252 -51 11 -157 13 -205 5z"/>
<path d="M3289 3630 c-8 -78 -14 -103 -35 -147 -43 -90 -132 -153 -237 -168
-35 -6 -45 -11 -38 -18 6 -6 21 -12 34 -13 134 -10 260 -130 270 -259 3 -31
26 -74 27 -49 4 80 33 155 83 211 42 46 133 95 182 97 34 1 75 25 45 27 -8 0
-22 2 -30 4 -8 1 -30 5 -48 8 -104 17 -216 143 -225 252 -2 19 -9 41 -15 47
-7 7 -12 10 -13 8z"/>
<path d="M2310 3590 c-19 -4 -50 -10 -68 -14 -146 -29 -389 -150 -602 -300
-86 -60 -323 -248 -415 -328 -80 -69 -264 -233 -341 -303 -298 -270 -510 -414
-635 -431 -27 -4 -52 -10 -54 -15 -17 -27 236 -143 380 -173 196 -41 387 7
525 131 63 58 222 233 364 403 101 120 99 118 186 225 36 44 67 82 70 85 3 3
58 71 122 151 133 166 217 247 333 323 128 85 197 117 311 146 105 27 188 26
282 -4 16 -5 22 -3 22 7 0 19 -97 64 -185 87 -73 19 -233 24 -295 10z"/>
<path d="M2469 3340 c-175 -36 -324 -125 -500 -300 -137 -136 -231 -252 -367
-455 -84 -126 -302 -480 -302 -490 0 -6 -219 -375 -256 -432 -125 -191 -250
-322 -331 -347 -32 -10 -29 -34 5 -42 15 -3 33 -8 41 -10 58 -18 304 -25 394
-11 109 17 234 79 311 154 82 81 125 159 260 483 32 74 61 144 66 155 15 34
118 301 192 495 38 102 88 221 111 264 144 278 388 486 590 505 113 10 76 39
-58 45 -41 2 -107 -4 -156 -14z"/>
<path d="M2738 3165 c-2 -2 -20 -6 -41 -9 -126 -20 -251 -89 -362 -200 -174
-174 -302 -428 -420 -831 -24 -82 -50 -179 -59 -215 -46 -194 -79 -341 -92
-408 -3 -13 -16 -74 -29 -135 -97 -447 -159 -621 -261 -732 -47 -52 -45 -66
10 -59 422 49 662 231 715 542 11 66 18 119 26 217 4 39 8 81 10 95 6 40 30
409 40 630 19 408 39 524 124 706 95 202 179 289 361 374 8 4 15 11 15 15 0 8
-31 16 -37 10z"/>
<path d="M2788 2985 c-129 -63 -232 -173 -308 -330 -44 -90 -81 -199 -94 -280
-3 -16 -10 -55 -16 -85 -29 -153 -33 -660 -5 -850 2 -14 6 -70 10 -125 4 -55
8 -102 10 -105 2 -3 6 -41 9 -85 4 -44 8 -89 10 -100 2 -11 7 -56 11 -100 4
-44 11 -116 15 -160 4 -44 6 -161 5 -260 -3 -189 -14 -252 -57 -323 -18 -30
-18 -32 -3 -39 11 -4 47 9 94 32 267 132 418 301 456 510 19 112 6 224 -56
485 -12 47 -27 112 -34 145 -18 82 -85 341 -146 565 -28 102 -53 196 -55 210
-3 14 -7 32 -9 40 -25 83 -33 304 -15 405 6 33 13 76 16 95 22 131 122 293
217 352 8 5 8 10 2 17 -6 6 -27 1 -57 -14z"/>
<path d="M5768 2935 c-2 -2 -25 -5 -53 -8 -107 -12 -464 -96 -920 -219 -165
-44 -336 -86 -380 -94 -120 -20 -347 -12 -455 16 -150 39 -276 114 -333 199
-21 32 -40 19 -25 -17 21 -49 96 -157 131 -189 64 -58 130 -104 197 -138 59
-30 168 -71 210 -80 8 -2 36 -8 63 -14 26 -6 64 -14 85 -17 20 -3 48 -7 62
-10 144 -24 532 -24 820 0 110 9 196 18 220 21 14 2 54 7 90 10 36 4 81 8 100
10 19 2 69 7 110 10 41 4 89 9 105 12 17 2 120 6 230 8 218 4 291 -6 377 -48
26 -13 52 -21 58 -17 16 10 -80 195 -149 287 -131 176 -287 268 -468 277 -40
2 -74 2 -75 1z"/>
<path d="M2908 2842 c-99 -105 -165 -235 -184 -359 -3 -21 -7 -49 -10 -63 -6
-32 -5 -197 2 -274 4 -47 43 -259 58 -311 1 -5 8 -30 15 -55 17 -59 90 -277
106 -315 7 -16 28 -68 46 -115 18 -47 75 -182 127 -300 225 -514 279 -651 307
-778 18 -85 24 -167 14 -211 -4 -19 -4 -42 1 -50 6 -12 23 0 80 55 194 187
292 384 285 575 -6 138 -20 179 -138 384 -98 172 -297 490 -449 718 -43 65
-78 122 -78 127 0 4 -4 10 -8 12 -25 10 -120 196 -162 318 -46 132 -68 354
-46 455 15 69 31 115 55 150 41 62 42 63 27 68 -7 3 -29 -11 -48 -31z"/>
<path d="M3066 2735 c-110 -233 -81 -501 88 -821 89 -167 201 -329 385 -554
86 -105 120 -144 238 -276 35 -40 72 -81 81 -92 38 -44 148 -166 167 -186 49
-52 168 -198 220 -271 73 -102 119 -194 135 -270 7 -33 17 -64 21 -69 8 -9 42
41 78 114 69 139 111 298 111 414 -1 135 -58 278 -153 382 -65 71 -292 273
-487 433 -69 57 -134 110 -145 120 -11 9 -90 72 -175 141 -194 155 -258 215
-329 310 -103 136 -157 241 -192 377 -22 88 -24 196 -2 257 16 47 16 46 -1 46
-7 0 -25 -25 -40 -55z"/>
<path d="M3439 2769 c-5 -50 17 -144 51 -218 112 -238 354 -418 760 -564 103
-37 292 -95 367 -112 10 -2 53 -13 95 -24 62 -16 329 -76 432 -97 10 -2 91
-20 180 -40 88 -20 168 -38 176 -39 8 -2 15 -4 15 -5 0 -1 7 -3 15 -5 34 -7
105 -27 178 -52 124 -41 216 -93 275 -154 42 -44 52 -17 33 86 -3 17 -7 44
-10 60 -29 166 -104 328 -196 424 -85 89 -178 140 -300 164 -116 24 -452 55
-765 72 -60 3 -149 8 -196 10 -47 3 -136 7 -199 10 -156 7 -187 11 -319 44
-176 44 -342 133 -451 242 -54 53 -110 142 -110 174 0 7 -7 18 -15 25 -12 10
-15 10 -16 -1z"/>
<path d="M3266 2752 c-12 -19 -23 -128 -19 -185 21 -333 276 -644 818 -998 92
-61 363 -225 445 -272 19 -10 109 -63 198 -116 90 -53 178 -104 195 -115 66
-38 234 -165 274 -207 63 -66 77 -84 99 -128 10 -22 24 -41 31 -41 28 0 52
169 48 340 -2 105 -7 138 -29 205 -15 44 -39 100 -53 125 -56 95 -164 188
-283 242 -159 73 -209 94 -390 168 -85 34 -164 66 -175 71 -26 11 -211 82
-400 154 -180 69 -244 100 -351 170 -219 145 -370 349 -382 516 -4 65 -14 90
-26 71z"/>
</g>
</svg>
